<?xml version="1.0" standalone="no"?>
<!DOCTYPE svg PUBLIC "-//W3C//DTD SVG 20010904//EN"
 "http://www.w3.org/TR/2001/REC-SVG-20010904/DTD/svg10.dtd">
<svg version="1.0" xmlns="http://www.w3.org/2000/svg"
 width="50.000000pt" height="50.000000pt" viewBox="0 0 50.000000 50.000000"
 preserveAspectRatio="xMidYMid meet">
<metadata>
Created by potrace 1.16, written by Peter Selinger 2001-2019
</metadata>
<g transform="translate(0.000000,50.000000) scale(0.022222,-0.022222)"
fill="#000000" stroke="none">
<path d="M1018 2240 c-268 -48 -472 -244 -532 -507 -30 -135 -15 -286 42 -407
16 -34 67 -117 114 -186 106 -155 214 -342 323 -560 46 -93 94 -175 107 -184
29 -20 77 -20 106 0 12 8 58 86 101 172 84 165 192 351 331 567 140 218 178
330 167 495 -22 339 -285 600 -620 615 -51 2 -113 0 -139 -5z m222 -391 c101
-44 164 -144 164 -259 0 -83 -27 -141 -93 -203 -108 -101 -264 -101 -372 0
-118 110 -129 271 -28 387 88 99 209 127 329 75z"/>
<path d="M1094 1680 c-28 -11 -64 -58 -64 -82 0 -47 50 -98 95 -98 46 0 95 51
95 99 0 27 -49 79 -80 85 -14 3 -35 1 -46 -4z"/>
<path d="M470 854 c-358 -105 -513 -261 -455 -459 13 -48 28 -70 78 -120 126
-124 369 -213 707 -256 123 -16 517 -16 645 0 409 51 692 174 775 337 19 38
25 64 24 114 -1 155 -128 272 -394 361 -69 23 -142 42 -163 42 -71 0 -112 -73
-77 -138 14 -26 31 -34 140 -65 170 -49 310 -140 310 -201 0 -90 -224 -196
-528 -251 -112 -20 -159 -23 -407 -23 -248 0 -295 3 -410 23 -229 41 -448 127
-505 199 -11 14 -20 38 -20 53 0 62 142 152 324 204 49 14 100 36 113 48 47
44 18 138 -47 151 -14 3 -63 -6 -110 -19z"/>
</g>
</svg>
